<?xml version="1.0" encoding="utf-8"?>
<!-- Generator: Adobe Illustrator 23.0.0, SVG Export Plug-In . SVG Version: 6.00 Build 0)  -->
<svg version="1.1" id="Layer_1" xmlns="http://www.w3.org/2000/svg" xmlns:xlink="http://www.w3.org/1999/xlink" x="0px" y="0px"
	 viewBox="0 0 809 292.1" style="enable-background:new 0 0 809 292.1;" xml:space="preserve">
<style type="text/css">
	.st0{fill-rule:evenodd;clip-rule:evenodd;}
	.st1{fill:none;}
	.st2{enable-background:new    ;}
</style>
<g>
	<g>
		<path class="st0" d="M425.2,56.9h20.1l3.5-23.6h-70.9l3.5,23.6h20.1v8.7H354l3.5,23.6h44.9c-0.2,2.3-0.2,5.1-0.5,8.4
			c-0.5,6.1,2.1,13.5,2.5,19.6c0.3,4.2-0.1,5.4,0.1,8.9c0.2,3-0.1,10.1,0,13.6c0,0.9,0.5,0.8,0.7,0.6c0.3-0.2,0.3-14.4,1.2-15.8
			c1.5-2.1,0.6,4.4,0.6,8.8c0.1,4.5-1.9,8.7-2,9.5c-0.4,3.4-0.2,3.8,0.6,9.1c0.5,3.2-1,1.9-0.4,4c0.2,0.8,1.8,2.6,1.9,3.5
			c0.4,3.9,0.6,4.5,0.8,8.6c0.2,3.5-1.1,4.7-0.9,8.3c0.1,1.1,1.1,5.6,1.3,6.6c0.4,2.3,0.3,2.2,0.3,4.4c0.1,3.9-2.7,4-0.4,6
			c1.5,1.3,0.7,1.5,3.9,2c0.8,0.1,1.2,0,1.5-0.1c0.6-0.4,0.7-0.3,1.1-0.3s1-0.6,1.2-1.1c0.2-0.4,0.6-0.4,0.9-0.6
			c0.4-0.4,0.9-0.9,0.7-2.1c-0.4-2.7-0.5-6.2,1-13.6c0.3-1.5,0.7-6.9,0.7-8.5c0-6.7,0.8-5.6,1.2-9.8c0.1-0.5-0.1-1.1,0-1.6
			c0.2-1.4,0.9-2.8,0.9-3.7c0-0.8-0.6-1.4-0.6-2.3c0-2.3,0.9-4,0.4-7.1c-0.1-0.5,0.9-1.6,0-2.3c-0.3-0.3-1.3,1.3-1.2-0.3
			c0-0.3-0.5-0.9-0.2-1.2c1.3-1.3-0.3-1.7-0.4-2.9c-0.1-0.7,0.4-2.1,0.4-2.2c0.2-1.3-0.3-1.7-0.1-2.8c0.1-0.7-0.5-0.9-0.8-0.9
			c-0.4,0-0.6,1.7-0.6,3.2c0,1.1-0.1,2.1-0.1,2.5s0,0.8,0,1.3c0,0.3-0.1,2.2-0.1,4.7c0,0.6,1,7.2,0.4,6.9c-0.3-0.1-0.2-1.7-0.4-3.5
			c-0.2-1.4,0.2-2.8-0.2-2.8c-1,0-0.3,2.7-0.3,4c0,3.7,0.6,4,0.6,4.7c0,0.6-0.2,0.5-0.5,0.6c-0.4,0.2,0,1-0.5,1.1
			c-0.7,0.1-0.5-15.8-0.6-16.2c-0.1-0.6-0.7-0.6-0.6-1.3c0.1-0.5,0.9-0.7,0.9-1c0-0.4-1.5-0.2-1.1-0.9c0.5-0.8,1.3,0.9,1.5-1.6
			c0.1-1.1-0.8-2-0.6-2.5c0.1-0.5-1.6-1.1-1.6-1.4c-0.1-0.8,1.3,0.6,1.6-0.4c0.3-0.8-0.2-1.4,0.2-1.6c0.3-0.2,0-0.7,0.9-0.8
			c0.5-0.1,0.5,0.1,1.1,1.3c0.2,0.3-0.4,1.9,1,2.8c0.5,0.4,0.8,1.7,0.9,2c0.2,0.9-0.1,1.1-0.2,1.9c0,1.8,0.7,1.2,0.7,2.4
			c0,0.6-0.6,3.9,0.1,4c0.4,0,1.1-3.1,1.3-8.8c0-0.5,0.9-1.9,0.9-2.4c0.1-0.6-0.4-1.2-0.2-1.8c1.2-3.8,1.2-6.9,0.9-8
			c-0.3-1.2-2.4-2.6-2.4-3.2c0-1.1,1.3,1.3,1.3-3.5c0.1-8.4,0.5-9.1,0.5-9.1l0.6-2.9c0,0-0.9-2.5-0.6-4.1c1-3.6,1.3-6.3,1.1-8.4
			h44.4l3.5-23.6H425v-8.6L425.2,56.9L425.2,56.9z"/>
	</g>
	<g>
		<polygon class="st0" points="469.2,24.5 472.7,0.9 354,0.9 357.5,24.5 		"/>
	</g>
</g>
<rect y="210.3" class="st1" width="809" height="96.8"/>
<g class="st2">
	<path d="M48.2,288.9c-6.3-1.5-11.6-3.6-15.7-6.2c-1.1-3.2-1.9-6.4-2.4-9.6s-1.2-7.8-2-13.8v-0.4c0.2-1.1,0.8-1.9,1.7-2.4
		c3.4,2.1,6.7,3.6,9.8,4.6c3.1,1,6.6,1.5,10.3,1.5h3.2l2.1,0.1c2.1,0,4.2-0.3,6.3-0.9c1.2-0.4,2-1.3,2.4-2.5l-7.1-3.5
		c-5.4-2.6-10.4-5.4-14.7-8.3c-4.6-3.3-7.8-7.5-9.8-12.6c-1-2.8-1.5-5.8-1.5-9.1c0-8,2.5-14.5,7.4-19.4c4.3-4.4,10.1-7.5,17.4-9.4
		c6.3-1.5,13.3-2.3,20.9-2.3c4.5,0,10.6,0.5,18.5,1.5c0.8,0.2,1.9,0.4,3.3,0.5l4,0.8c3,0.5,5.3,0.8,6.7,0.8c0.1,0,0.2,0.1,0.5,0.4
		c0.2,0.3,0.4,0.5,0.6,0.7c0.4,0.6,0.7,0.9,1.1,0.9h0.1h0.1l0.3,2.8c0,1.3,0.1,2.8,0.4,4.3c0.3,2.2,0.4,4.6,0.4,7.2
		c0,2.2-0.1,3.8-0.4,4.8c-0.4,1.8-1.3,3.1-2.4,3.9l-12.5-1.6H96h-1.9c-3,0-6.5,0.3-10.5,0.9l-4.4,0.9c-1.1,0.2-1.6,0.4-1.6,0.5
		c0,2.1,1.4,4.2,4.2,6c1.3,0.7,2.7,1.3,4,1.8c1.3,0.5,2.2,0.8,2.5,1c6.6,1.9,12.3,5.1,17.2,9.8c2.2,2.1,4,4.4,5.2,6.8
		c1.3,2.4,1.9,4.7,1.9,7c0,1.3-0.2,2.8-0.5,4.3c-0.6,6.7-3.2,12.5-7.6,17.4c-4.4,4.4-9.9,7.6-16.5,9.6c-5.7,2.1-12.6,3.1-20.6,3.1
		C61,291,54.6,290.3,48.2,288.9z"/>
	<path d="M246.6,288.3c-4.3-0.2-8-0.7-11.3-1.6c-0.4,0-0.7-0.5-1.1-1.6c-0.3-0.8-0.4-1.4-0.4-1.9l-2.5-48.8v-2.7
		c0-0.6,0-1.7,0.1-3.4c0.1-1.6,0.1-3.8,0.1-6.4l0.3-7c0-1.8,0-3.1,0.1-4c0-2.7,0.1-5.3,0.3-7.8c0-0.8,0-1.4,0.1-1.7
		c0-0.3,0.1-0.5,0.1-0.6c0.2-0.1,0.5-0.3,1-0.7c0.5-0.4,0.9-0.7,1.3-1c0.9-0.8,2.2-1.2,3.9-1.2h7.8h2.1c0.9,0.1,2.5,0.1,5,0.1
		c2.6,0,4.7,0,6.3,0.1h6.2h5h2c2.3,0,3.9,0.4,4.7,1.1c1.1,0.8,1.6,2.4,1.6,4.7v1.3c0,0.4,0,0.7-0.1,1.1c-0.1,0.4-0.1,0.7-0.1,1.1
		l-0.3,2.1l-0.1,1.6c0,0.4,0.1,0.7,0.3,1.1c0.1,0.4,0.1,0.8,0.1,1.3c0,2.4,0,4.2-0.1,5.2l-0.1,5.5h3.5c1.2,0.3,2.4,0.4,3.8,0.4
		c1.8,0.2,3,0.3,3.8,0.3c0.8,0.2,2,0.3,3.6,0.3l0.1-9.1c0.1-0.8,0.1-2,0.1-3.5l0.1-5.5v-1.1c0-1.4,0-2.7,0.1-3.8
		c0.1-1.1,0.3-1.9,0.5-2.3c0.5-0.7,1.2-1.1,1.9-1.1c0.5-0.2,1.8-0.3,3.8-0.3l3.6-0.1c2.6,0,4.7-0.1,6.4-0.3h7.6c3.6,0,6.2,0,7.8-0.1
		c3.1,0,5.3,0,6.4-0.1h3.6c2.1,0,3.6,0.3,4.3,0.8c0.5,0.4,0.9,0.9,1.1,1.5c0.2,0.7,0.3,1.6,0.3,2.9c0,3.5-0.1,8.2-0.3,14.1
		c-0.4,5.7-0.5,10.3-0.5,13.8c0,0.5,0.1,1,0.3,1.3c0,0.4,0,0.6,0.1,0.9c0.1,0.2,0.1,0.4,0.1,0.5l-3.4,50.9c0,0.4-0.3,1.1-0.9,1.9
		c-0.8,0.8-1.5,1.2-2.1,1.2h-36.8c-0.3,0-0.5-0.2-0.8-0.7c-0.3-0.4-0.5-1-0.7-1.7c-0.1-0.4-0.2-1-0.3-1.8c-0.1-0.8-0.2-1.7-0.3-2.9
		l-1.5-24.8H293c-2.4,0-4.3,0-5.8-0.1c-3.4-0.2-5.5-0.3-6.3-0.3h-1.1c-0.8,0-1.2,0.8-1.2,2.3c0,11.1,0,18.1-0.1,21.2
		c0,0.7-0.1,2.4-0.4,5.1c-0.2,2.1-0.9,3.3-2.3,3.8l-2,0.1c-7,0.4-11.8,0.6-14.6,0.7C253.6,288.6,249.4,288.5,246.6,288.3z"/>
	<path d="M486.9,288.5c-8.6-2.2-15.1-6.4-19.6-12.5c-5.2-7.2-7.8-17.3-7.8-30.2c0-9.2,1-17,3.1-23.4c2.1-6.4,5.2-11.7,9.5-15.8
		c4.3-4.1,9.8-7.1,16.5-9c6.7-1.9,15-2.9,24.7-2.9c7.6,0,14.7,1.2,21.4,3.5c8.2,2.9,14.6,7.5,19.2,13.5c5.6,7.2,8.4,16.8,8.4,28.5
		c0,13.8-2.1,24.5-6.2,32.2c-4.1,7.1-10,12.1-17.8,15c-6.3,2.4-15.1,3.6-26.4,3.6C501.5,291,493.1,290.2,486.9,288.5z M513.6,276
		c1.3-2.9,2.3-7.4,2.8-13.5c0.5-5.6,0.8-10.9,0.8-15.9v-5.4v-3.4c0-3.9-0.3-8.7-0.8-14.3c-0.5-6.1-1.5-10.7-2.8-13.8
		c-0.7-1.5-1.6-2.3-2.5-2.3c-2,0-3.4,1.9-4.3,5.6c-0.9,5.2-1.3,9.9-1.3,14.1c-0.3,3.6-0.4,9.2-0.4,16.8c0,5.1,0.1,9.3,0.4,12.6
		c0,4.2,0.4,9.1,1.3,14.6c0.9,4.6,2.3,7,4.3,7C512.1,278,513,277.3,513.6,276z"/>
	<path d="M682.5,284.7c-0.4-1-0.7-2.8-0.7-5.4c0-7.8-0.1-14.7-0.3-20.8c-0.3-8.8-0.4-18-0.4-27.7v-29.5c0-0.8,0.4-1.6,1.1-2.3
		c0.8-0.8,1.5-1.1,2.3-1.1l15.4,0.1c2.9,0.1,6.6,0.1,11.3,0.1c6.7,0,11.9,0,15.5-0.1l5-0.1c5.4-0.2,9.8-0.3,13.3-0.3
		c5.6,0,11,0.8,16.1,2.4c6,1.8,10.9,4.9,14.6,9.2c4.2,4.7,6.3,11.1,6.3,19.2c0,13.6-3.4,23.4-10.3,29.5c-6.1,5.7-15.1,8.6-27.2,8.6
		h-18.4c0.1,2.1,0.1,4.2,0.1,6.6c0,0.8,0,1.8-0.1,2.9c0,1.1-0.1,2.6-0.1,4.5c0,2.9-0.6,4.8-1.9,5.6c-1,0.8-2.8,1.2-5.5,1.2
		c-3.9,0-6.7,0-8.2,0.1c-6.2,0-11.1,0.1-14.7,0.3h-10.5C684,287.7,683,286.7,682.5,284.7z M733.5,250.4c1.9,0,3.3-1.8,4.2-5.4
		c0.7-2.4,1.3-6,1.6-10.7c0.2-2.6,0.3-5.5,0.3-8.7v-1.5c0-1.4-0.2-3.6-0.7-6.4c-0.4-1.6-0.8-2.9-1.2-3.8c-0.4-0.9-1-1.7-1.7-2.3
		c-0.7-0.8-1.5-1.2-2.4-1.2c-0.4,0-0.8,0.2-1.1,0.5c-0.3,0.4-0.6,0.8-0.9,1.3c-1,1.6-1.9,5.2-2.7,10.7c-0.3,1.6-0.5,4-0.7,7.2
		c-0.4,4.9-0.7,11.5-0.7,19.7c0.2,0.2,0.4,0.3,0.7,0.4l1.6,0.1H733.5z"/>
</g>
</svg>
